#Comment line ignore any data following # character 
#Hierarchical Translation and Rotation (.htr) file 
[Header]	
#Header keywords are followed by a single value 
FileType HTR		#Single word string
DataType HTRS		#Translation followed by rotation and scale data
FileVersion 1		#integer
NumSegments 84		#integer
NumFrames 2		#integer
DataFrameRate 30		#integer, data frame rate in this file
EulerRotationOrder ZYX
CalibrationUnits mm
RotationUnits Degrees
GlobalAxisofGravity Y
BoneLengthAxis Y
ScaleFactor 1.00
[SegmentNames&Hierarchy]
#CHILD	PARENT
MASTER GLOBAL
root MASTER
chest root
L_mid_tent01 root
R_mid_tent01 root
spine01 root
Bip01_Neck chest
L_humerus chest
R_humerus chest
weapon_bone chest
Bip01_Head Bip01_Neck
eye_left_bone Bip01_Head
eye_right_bone Bip01_Head
L_forearm L_humerus
L_front_hand L_forearm
L_weapon_bone L_forearm
L_front_hand01_01 L_front_hand
L_front_hand02_01 L_front_hand
L_front_hand03_01 L_front_hand
L_front_hand01_02 L_front_hand01_01
L_front_hand02_02 L_front_hand02_01
L_front_hand03_02 L_front_hand03_01
R_forearm R_humerus
R_front_hand R_forearm
R_weapon_bone R_forearm
R_front_hand01_01 R_front_hand
R_front_hand02_01 R_front_hand
R_front_hand03_01 R_front_hand
R_front_hand01_02 R_front_hand01_01
R_front_hand02_02 R_front_hand02_01
R_front_hand03_02 R_front_hand03_01
null_rope01_connect L_mid_tent01
Rope1_Seg01 null_rope01_connect
Rope1_Seg02 Rope1_Seg01
Rope1_Seg03 Rope1_Seg02
Rope1_Seg04 Rope1_Seg03
Rope1_Seg05 Rope1_Seg04
Rope1_Seg06 Rope1_Seg05
Rope1_Seg07 Rope1_Seg06
Rope1_Seg09 Rope1_Seg07
L_mid_hand01 Rope1_Seg09
L_mid_hand02 Rope1_Seg09
L_mid_hand03 Rope1_Seg09
null_rope02_connect R_mid_tent01
Rope2_Seg01 null_rope02_connect
Rope2_Seg02 Rope2_Seg01
Rope2_Seg03 Rope2_Seg02
Rope2_Seg04 Rope2_Seg03
Rope2_Seg05 Rope2_Seg04
Rope2_Seg06 Rope2_Seg05
Rope2_Seg07 Rope2_Seg06
Rope2_Seg09 Rope2_Seg07
R_mid_hand01 Rope2_Seg09
R_mid_hand02 Rope2_Seg09
R_mid_hand03 Rope2_Seg09
spine02 spine01
spine03 spine02
pelvis spine03
null_rope03_connect pelvis
null_rope04_connect pelvis
Rope3_Seg01 null_rope03_connect
Rope3_Seg02 Rope3_Seg01
Rope3_Seg03 Rope3_Seg02
Rope3_Seg04 Rope3_Seg03
Rope3_Seg05 Rope3_Seg04
Rope3_Seg06 Rope3_Seg05
Rope3_Seg07 Rope3_Seg06
Rope3_Seg08 Rope3_Seg07
Rope3_Seg09 Rope3_Seg08
R_rear_hand01 Rope3_Seg09
R_rear_hand02 Rope3_Seg09
R_rear_hand03 Rope3_Seg09
Rope4_Seg01 null_rope04_connect
Rope4_Seg02 Rope4_Seg01
Rope4_Seg03 Rope4_Seg02
Rope4_Seg04 Rope4_Seg03
Rope4_Seg05 Rope4_Seg04
Rope4_Seg06 Rope4_Seg05
Rope4_Seg07 Rope4_Seg06
Rope4_Seg08 Rope4_Seg07
Rope4_Seg09 Rope4_Seg08
L_rear_hand01 Rope4_Seg09
L_rear_hand02 Rope4_Seg09
L_rear_hand03 Rope4_Seg09
[BasePosition]
#SegmentName Tx, Ty, Tz, Rx, Ry, Rz, BoneLength
MASTER 0.000000 0.000000 0.000000 -90.000000 0.000000 0.000000 10.000000 
root 0.000000 0.000000 0.000000 0.000000 0.000000 0.000000 10.000000 
chest 0.000000 0.000000 0.000000 0.000000 0.000000 0.000000 10.000000 
L_mid_tent01 0.000000 0.000000 0.000000 0.000000 0.000000 0.000000 10.000000 
R_mid_tent01 0.000000 0.000000 0.000000 0.000000 0.000000 0.000000 10.000000 
spine01 0.000000 0.000000 0.000000 0.000000 0.000000 0.000000 10.000000 
Bip01_Neck 0.000000 0.000000 0.000000 0.000000 0.000000 0.000000 10.000000 
L_humerus 0.000000 0.000000 0.000000 0.000000 0.000000 0.000000 10.000000 
R_humerus 0.000000 0.000000 0.000000 0.000000 0.000000 0.000000 10.000000 
weapon_bone 0.000000 0.000000 0.000000 0.000000 0.000000 0.000000 10.000000 
Bip01_Head 0.000000 0.000000 0.000000 0.000000 0.000000 0.000000 10.000000 
eye_left_bone 0.000000 0.000000 0.000000 0.000000 0.000000 0.000000 10.000000 
eye_right_bone 0.000000 0.000000 0.000000 0.000000 0.000000 0.000000 10.000000 
L_forearm 0.000000 0.000000 0.000000 0.000000 0.000000 0.000000 10.000000 
L_front_hand 0.000000 0.000000 0.000000 0.000000 0.000000 0.000000 10.000000 
L_weapon_bone 0.000000 0.000000 0.000000 0.000000 0.000000 0.000000 10.000000 
L_front_hand01_01 0.000000 0.000000 0.000000 0.000000 0.000000 0.000000 10.000000 
L_front_hand02_01 0.000000 0.000000 0.000000 0.000000 0.000000 0.000000 10.000000 
L_front_hand03_01 0.000000 0.000000 0.000000 0.000000 0.000000 0.000000 10.000000 
L_front_hand01_02 0.000000 0.000000 0.000000 0.000000 0.000000 0.000000 10.000000 
L_front_hand02_02 0.000000 0.000000 0.000000 0.000000 0.000000 0.000000 10.000000 
L_front_hand03_02 0.000000 0.000000 0.000000 0.000000 0.000000 0.000000 10.000000 
R_forearm 0.000000 0.000000 0.000000 0.000000 0.000000 0.000000 10.000000 
R_front_hand 0.000000 0.000000 0.000000 0.000000 0.000000 0.000000 10.000000 
R_weapon_bone 0.000000 0.000000 0.000000 0.000000 0.000000 0.000000 10.000000 
R_front_hand01_01 0.000000 0.000000 0.000000 0.000000 0.000000 0.000000 10.000000 
R_front_hand02_01 0.000000 0.000000 0.000000 0.000000 0.000000 0.000000 10.000000 
R_front_hand03_01 0.000000 0.000000 0.000000 0.000000 0.000000 0.000000 10.000000 
R_front_hand01_02 0.000000 0.000000 0.000000 0.000000 0.000000 0.000000 10.000000 
R_front_hand02_02 0.000000 0.000000 0.000000 0.000000 0.000000 0.000000 10.000000 
R_front_hand03_02 0.000000 0.000000 0.000000 0.000000 0.000000 0.000000 10.000000 
null_rope01_connect 0.000000 0.000000 0.000000 0.000000 0.000000 0.000000 10.000000 
Rope1_Seg01 0.000000 0.000000 0.000000 0.000000 0.000000 0.000000 10.000000 
Rope1_Seg02 0.000000 0.000000 0.000000 0.000000 0.000000 0.000000 10.000000 
Rope1_Seg03 0.000000 0.000000 0.000000 0.000000 0.000000 0.000000 10.000000 
Rope1_Seg04 0.000000 0.000000 0.000000 0.000000 0.000000 0.000000 10.000000 
Rope1_Seg05 0.000000 0.000000 0.000000 0.000000 0.000000 0.000000 10.000000 
Rope1_Seg06 0.000000 0.000000 0.000000 0.000000 0.000000 0.000000 10.000000 
Rope1_Seg07 0.000000 0.000000 0.000000 0.000000 0.000000 0.000000 10.000000 
Rope1_Seg09 0.000000 0.000000 0.000000 0.000000 0.000000 0.000000 10.000000 
L_mid_hand01 0.000000 0.000000 0.000000 0.000000 0.000000 0.000000 10.000000 
L_mid_hand02 0.000000 0.000000 0.000000 0.000000 0.000000 0.000000 10.000000 
L_mid_hand03 0.000000 0.000000 0.000000 0.000000 0.000000 0.000000 10.000000 
null_rope02_connect 0.000000 0.000000 0.000000 0.000000 0.000000 0.000000 10.000000 
Rope2_Seg01 0.000000 0.000000 0.000000 0.000000 0.000000 0.000000 10.000000 
Rope2_Seg02 0.000000 0.000000 0.000000 0.000000 0.000000 0.000000 10.000000 
Rope2_Seg03 0.000000 0.000000 0.000000 0.000000 0.000000 0.000000 10.000000 
Rope2_Seg04 0.000000 0.000000 0.000000 0.000000 0.000000 0.000000 10.000000 
Rope2_Seg05 0.000000 0.000000 0.000000 0.000000 0.000000 0.000000 10.000000 
Rope2_Seg06 0.000000 0.000000 0.000000 0.000000 0.000000 0.000000 10.000000 
Rope2_Seg07 0.000000 0.000000 0.000000 0.000000 0.000000 0.000000 10.000000 
Rope2_Seg09 0.000000 0.000000 0.000000 0.000000 0.000000 0.000000 10.000000 
R_mid_hand01 0.000000 0.000000 0.000000 0.000000 0.000000 0.000000 10.000000 
R_mid_hand02 0.000000 0.000000 0.000000 0.000000 0.000000 0.000000 10.000000 
R_mid_hand03 0.000000 0.000000 0.000000 0.000000 0.000000 0.000000 10.000000 
spine02 0.000000 0.000000 0.000000 0.000000 0.000000 0.000000 10.000000 
spine03 0.000000 0.000000 0.000000 0.000000 0.000000 0.000000 10.000000 
pelvis 0.000000 0.000000 0.000000 0.000000 0.000000 0.000000 10.000000 
null_rope03_connect 0.000000 0.000000 0.000000 0.000000 0.000000 0.000000 10.000000 
null_rope04_connect 0.000000 0.000000 0.000000 0.000000 0.000000 0.000000 10.000000 
Rope3_Seg01 0.000000 0.000000 0.000000 0.000000 0.000000 0.000000 10.000000 
Rope3_Seg02 0.000000 0.000000 0.000000 0.000000 0.000000 0.000000 10.000000 
Rope3_Seg03 0.000000 0.000000 0.000000 0.000000 0.000000 0.000000 10.000000 
Rope3_Seg04 0.000000 0.000000 0.000000 0.000000 0.000000 0.000000 10.000000 
Rope3_Seg05 0.000000 0.000000 0.000000 0.000000 0.000000 0.000000 10.000000 
Rope3_Seg06 0.000000 0.000000 0.000000 0.000000 0.000000 0.000000 10.000000 
Rope3_Seg07 0.000000 0.000000 0.000000 0.000000 0.000000 0.000000 10.000000 
Rope3_Seg08 0.000000 0.000000 0.000000 0.000000 0.000000 0.000000 10.000000 
Rope3_Seg09 0.000000 0.000000 0.000000 0.000000 0.000000 0.000000 10.000000 
R_rear_hand01 0.000000 0.000000 0.000000 0.000000 0.000000 0.000000 10.000000 
R_rear_hand02 0.000000 0.000000 0.000000 0.000000 0.000000 0.000000 10.000000 
R_rear_hand03 0.000000 0.000000 0.000000 0.000000 0.000000 0.000000 10.000000 
Rope4_Seg01 0.000000 0.000000 0.000000 0.000000 0.000000 0.000000 10.000000 
Rope4_Seg02 0.000000 0.000000 0.000000 0.000000 0.000000 0.000000 10.000000 
Rope4_Seg03 0.000000 0.000000 0.000000 0.000000 0.000000 0.000000 10.000000 
Rope4_Seg04 0.000000 0.000000 0.000000 0.000000 0.000000 0.000000 10.000000 
Rope4_Seg05 0.000000 0.000000 0.000000 0.000000 0.000000 0.000000 10.000000 
Rope4_Seg06 0.000000 0.000000 0.000000 0.000000 0.000000 0.000000 10.000000 
Rope4_Seg07 0.000000 0.000000 0.000000 0.000000 0.000000 0.000000 10.000000 
Rope4_Seg08 0.000000 0.000000 0.000000 0.000000 0.000000 0.000000 10.000000 
Rope4_Seg09 0.000000 0.000000 0.000000 0.000000 0.000000 0.000000 10.000000 
L_rear_hand01 0.000000 0.000000 0.000000 0.000000 0.000000 0.000000 10.000000 
L_rear_hand02 0.000000 0.000000 0.000000 0.000000 0.000000 0.000000 10.000000 
L_rear_hand03 0.000000 0.000000 0.000000 0.000000 0.000000 0.000000 10.000000 
#Beginning of Data. Separated by tabs
#Fr	Tx	Ty	Tz	Rx	Ry	Rz	SF
[MASTER]
15 0.000000 0.000000 0.000000 0.001660 0.001660 0.001660 0.000000
16 0.000000 0.000000 0.000000 0.001660 0.001660 0.001660 0.000000
[root]
15 -36.350212 -54.073921 1502.482422 -99.719780 -51.799549 -86.081917 1503.894531
16 -35.695358 -54.596218 1502.421509 -99.711540 -50.879807 -86.125122 1503.836792
[chest]
15 -84.512650 -34.090519 0.000000 -8.023705 -23.203962 168.191177 91.129311
16 -84.512650 -34.090519 0.000000 -10.379676 -27.263716 169.461304 91.129311
[L_mid_tent01]
15 27.299160 22.179106 -249.918716 2.095419 -2.463950 78.687622 252.381699
16 27.299164 22.179106 -249.918716 2.096512 1.577047 78.761536 252.381699
[R_mid_tent01]
15 23.228794 24.509907 226.238495 165.777695 -0.481382 72.672539 228.744751
16 23.228794 24.509907 226.238495 165.922806 -4.562566 73.599800 228.744751
[spine01]
15 -0.361383 -0.195265 0.000000 0.002062 0.001122 32.879829 0.410763
16 -0.361383 -0.195265 0.000000 0.002062 0.001122 32.879829 0.410763
[Bip01_Neck]
15 165.484543 71.581718 0.000119 176.643677 -1.657967 43.431911 180.302734
16 165.484543 71.581718 0.000119 176.643677 -1.657967 43.431911 180.302734
[L_humerus]
15 -13.983130 -135.272980 -120.471481 167.834305 10.703959 -69.147835 181.680161
16 -13.983130 -135.272980 -120.471481 169.174911 17.534922 -72.488480 181.680161
[R_humerus]
15 -13.983309 -135.273102 125.287651 -175.122986 -7.116888 -90.364204 184.909012
16 -13.983309 -135.273102 125.287651 -174.046265 -7.577672 -93.300667 184.909012
[weapon_bone]
15 235.964890 -300.705902 0.000000 0.000000 -89.951546 -128.212341 382.234833
16 235.964890 -300.705902 0.000000 0.000000 -89.951546 -128.212341 382.234833
[Bip01_Head]
15 213.401794 185.833664 10.252379 32.181011 0.098414 -43.899757 283.160004
16 213.362839 185.941620 8.855930 32.533573 1.667152 -43.882183 283.154388
[eye_left_bone]
15 -24.626970 125.451866 -64.772606 0.000000 -90.000000 -99.840431 143.318359
16 -24.626970 125.451866 -64.772606 0.000000 -90.000000 -99.840431 143.318359
[eye_right_bone]
15 -24.626970 125.451866 64.327362 0.000000 -89.965736 80.156380 143.117676
16 -24.626970 125.451866 64.327362 0.000000 -89.965736 80.156380 143.117676
[L_forearm]
15 322.776093 0.000000 -0.000119 0.000396 -0.002314 -109.419975 322.776093
16 322.776093 0.000000 -0.000119 0.000396 -0.002314 -109.419975 322.776093
[L_front_hand]
15 241.149185 -0.042021 -3.300071 -178.667953 -1.835447 -27.422350 241.171753
16 241.149185 -0.042021 -3.300071 -178.667953 -1.835447 -27.422350 241.171753
[L_weapon_bone]
15 156.183838 0.000000 0.000000 0.000014 0.000007 0.000001 156.183838
16 156.183838 0.000000 0.000000 0.000014 0.000007 0.000001 156.183838
[L_front_hand01_01]
15 86.095154 20.947098 -0.655860 -0.274633 -0.532782 65.272827 88.609184
16 86.095154 20.947098 -0.655860 -0.280373 -0.529283 65.613800 88.609184
[L_front_hand02_01]
15 86.935165 -11.437475 24.513514 141.090271 -54.445614 -45.572052 91.046425
16 86.935165 -11.437475 24.513514 141.458649 -54.658344 -46.027485 91.046425
[L_front_hand03_01]
15 86.637497 -14.123976 -20.424902 -141.476303 52.677540 -47.637543 90.126129
16 86.637497 -14.123976 -20.424902 -141.832764 52.885189 -48.080185 90.126129
[L_front_hand01_02]
15 71.020905 -0.000179 0.000030 0.000315 -0.002326 -105.405197 71.020905
16 71.020905 -0.000179 0.000030 0.000315 -0.002326 -105.400543 71.020905
[L_front_hand02_02]
15 71.020927 -0.000119 0.000060 0.000315 -0.002326 -105.405197 71.020927
16 71.020927 -0.000119 0.000060 0.000315 -0.002326 -105.400543 71.020927
[L_front_hand03_02]
15 71.020905 -0.000060 0.000060 0.000315 -0.002326 -105.405197 71.020905
16 71.020905 -0.000060 0.000060 0.000315 -0.002326 -105.400543 71.020905
[R_forearm]
15 322.776428 -0.000060 0.000030 0.202103 0.065158 -108.062805 322.776428
16 322.776428 -0.000060 0.000030 0.202103 0.065158 -108.062805 322.776428
[R_front_hand]
15 238.847015 -0.006795 2.210259 -2.635298 -10.645461 -26.312506 238.857239
16 238.847015 -0.006795 2.210259 -2.635298 -10.645461 -26.312506 238.857239
[R_weapon_bone]
15 155.664093 0.002503 -0.000030 0.003487 0.001180 -90.988930 155.664078
16 155.664093 0.002503 -0.000030 0.003487 0.001180 -90.988930 155.664078
[R_front_hand01_01]
15 87.624611 14.231146 22.918642 -138.456909 -52.798630 42.405624 91.683487
16 87.624611 14.231146 22.918642 -138.672287 -52.939835 42.677601 91.683487
[R_front_hand02_01]
15 89.356956 14.367283 -19.491137 139.300415 51.240429 45.105949 92.579636
16 89.356956 14.367283 -19.491137 139.502045 51.377892 45.363930 92.579636
[R_front_hand03_01]
15 87.286232 -22.307278 -0.143439 0.064051 -0.451784 -62.968155 90.091743
16 87.286232 -22.307278 -0.143439 0.064897 -0.451663 -63.182877 90.091743
[R_front_hand01_02]
15 71.020905 0.000060 0.000119 0.002323 -0.000334 106.381714 71.020905
16 71.020905 0.000060 0.000119 0.002323 -0.000334 106.381714 71.020905
[R_front_hand02_02]
15 71.020844 -0.000030 -0.000119 0.002323 -0.000334 106.381714 71.020836
16 71.020844 -0.000030 -0.000119 0.002323 -0.000334 106.381714 71.020836
[R_front_hand03_02]
15 71.020905 0.000000 0.000030 0.002323 -0.000334 106.381714 71.020905
16 71.020905 0.000000 0.000030 0.002323 -0.000334 106.381714 71.020905
[null_rope01_connect]
15 328.732483 0.000000 -0.000238 -140.620193 -86.097557 -156.074249 328.732483
16 328.732483 0.000000 -0.000238 -129.495407 -82.163986 -167.987137 328.732483
[Rope1_Seg01]
15 -0.000017 -0.000034 0.000067 67.789719 10.073584 -125.649391 0.000077
16 -0.000015 -0.000031 0.000061 89.102852 6.096652 -137.745499 0.000070
[Rope1_Seg02]
15 139.999863 -0.000179 0.000000 -20.825527 6.970118 -2.892749 139.999863
16 139.999863 -0.000179 0.000000 10.172035 4.500136 -9.483347 139.999863
[Rope1_Seg03]
15 139.999924 0.000060 -0.000060 -111.050186 16.379871 -2.970015 139.999924
16 139.999924 0.000060 -0.000060 118.842712 4.699025 -27.592493 139.999924
[Rope1_Seg04]
15 139.999924 -0.000060 -0.000119 -5.613022 -13.465452 18.789375 139.999924
16 139.999924 -0.000060 -0.000119 33.392223 -31.373392 -2.349697 139.999924
[Rope1_Seg05]
15 139.999832 0.000119 -0.000060 11.718737 -14.602557 0.319443 139.999832
16 139.999832 0.000119 -0.000060 9.317489 -19.100924 1.817269 139.999832
[Rope1_Seg06]
15 139.999954 0.000119 -0.000060 1.955962 -6.564523 3.516800 139.999954
16 139.999954 0.000119 -0.000060 1.549282 -7.553537 3.220973 139.999954
[Rope1_Seg07]
15 139.999985 0.000060 0.000000 0.533597 -2.086381 1.213768 139.999985
16 139.999985 0.000060 0.000000 0.204653 -1.087311 0.499255 139.999985
[Rope1_Seg09]
15 121.602913 0.000119 -0.000089 -89.793175 -1.359789 0.847147 121.602913
16 121.602913 0.000119 -0.000089 -89.793175 -1.359789 0.847147 121.602913
[L_mid_hand01]
15 103.859421 1.038730 8.195221 118.511871 -58.710987 -25.432119 104.187431
16 103.859421 1.038730 8.195221 122.214622 -62.281231 -29.682964 104.187431
[L_mid_hand02]
15 105.572853 -4.139662 -10.864139 -159.626373 40.490181 -59.638344 106.211075
16 105.572853 -4.139662 -10.864139 -163.055801 41.815437 -64.846191 106.211075
[L_mid_hand03]
15 104.641464 17.579376 -3.913581 -9.285491 16.381809 63.801434 106.179977
16 104.641464 17.579376 -3.913581 -8.059158 17.002197 68.062881 106.179977
[null_rope02_connect]
15 328.732849 0.000179 -0.000119 -5.551148 70.807236 105.776604 328.732849
16 328.732849 0.000179 -0.000119 -19.063946 71.656151 93.764320 328.732849
[Rope2_Seg01]
15 -0.000052 0.000100 0.000000 132.537140 30.218155 -69.950943 0.000112
16 -0.000061 0.000099 0.000000 154.468430 36.001270 -61.821636 0.000116
[Rope2_Seg02]
15 139.999741 -0.000060 -0.000119 -3.783491 -7.769508 6.163418 139.999756
16 139.999741 -0.000060 -0.000119 -6.202759 -5.827243 6.554630 139.999756
[Rope2_Seg03]
15 140.000107 0.000030 0.000000 -3.723210 -18.965811 11.551864 140.000107
16 140.000107 0.000030 0.000000 -5.883203 -17.598648 13.097888 140.000107
[Rope2_Seg04]
15 139.999802 0.000000 -0.000060 -6.019661 -32.069538 19.153610 139.999802
16 139.999802 0.000000 -0.000060 -8.710849 -25.625046 24.094402 139.999802
[Rope2_Seg05]
15 139.999985 -0.000060 0.000119 0.567108 28.125340 9.934690 139.999985
16 139.999985 -0.000060 0.000119 -1.311014 24.071238 14.423227 139.999985
[Rope2_Seg06]
15 139.999893 -0.000030 -0.000119 -4.296333 16.457062 5.433609 139.999893
16 139.999893 -0.000030 -0.000119 -2.968889 6.607904 6.916285 139.999893
[Rope2_Seg07]
15 139.999893 0.000060 -0.000060 -3.277811 6.068700 3.480059 139.999893
16 139.999893 0.000060 -0.000060 -1.917803 3.062283 3.939406 139.999893
[Rope2_Seg09]
15 121.338966 0.000089 -0.000060 33.793236 -1.359788 -0.847141 121.338966
16 121.338966 0.000089 -0.000060 33.793236 -1.359788 -0.847141 121.338966
[R_mid_hand01]
15 104.680779 11.144459 -10.335981 -34.826851 34.540035 41.908733 105.778534
16 104.680779 11.144459 -10.335981 -32.057350 37.073116 46.635818 105.778534
[R_mid_hand02]
15 104.070427 2.443552 8.231699 68.824310 -46.622631 16.260359 104.424065
16 104.070427 2.443552 8.231699 66.850014 -50.884758 18.890066 104.424065
[R_mid_hand03]
15 106.028137 -11.221827 -5.996406 -170.883774 12.973572 -51.735531 106.788818
16 106.028137 -11.221827 -5.996406 -171.959641 13.662919 -56.404911 106.788818
[spine02]
15 129.756927 0.001550 0.000119 0.360061 -4.044797 -12.915058 129.756927
16 129.756927 0.001550 0.000119 0.360061 -4.044797 -12.915058 129.756927
[spine03]
15 78.614067 0.081635 -4.899011 1.896495 3.831288 16.473045 78.766602
16 78.614067 0.081635 -4.899012 1.896495 3.831288 16.473045 78.766602
[pelvis]
15 169.435242 0.051022 0.000000 -0.060465 -0.180225 14.087930 169.435257
16 169.435242 0.051022 0.000000 -0.060465 -0.180225 14.087930 169.435257
[null_rope03_connect]
15 -1.257226 -2.466202 137.391083 -148.233246 -84.060928 -120.278946 137.418976
16 -1.257226 -2.466202 137.391083 -149.188721 -83.993843 -120.244362 137.418976
[null_rope04_connect]
15 -1.259640 -2.480268 -137.844437 -148.233246 -84.060928 -120.278946 137.872513
16 -1.259640 -2.480268 -137.844437 -149.188721 -83.993843 -120.244362 137.872513
[Rope3_Seg01]
15 0.000010 0.000038 -0.000114 -130.848145 2.772040 -89.555115 0.000121
16 0.000010 0.000038 -0.000114 -129.800720 0.185262 -96.807297 0.000121
[Rope3_Seg02]
15 139.999924 -0.000119 0.000060 1.226496 6.874187 5.522795 139.999924
16 139.999924 -0.000119 0.000060 0.530731 0.883127 -1.304972 139.999924
[Rope3_Seg03]
15 139.999924 -0.000119 0.000119 2.410031 8.450776 5.841702 139.999924
16 139.999924 -0.000119 0.000119 1.829857 5.992645 0.107314 139.999924
[Rope3_Seg04]
15 139.999924 0.000119 0.000000 3.411649 8.348530 5.024626 139.999924
16 139.999924 0.000119 0.000000 0.184325 0.042612 -0.883569 139.999924
[Rope3_Seg05]
15 139.999924 -0.000238 0.000060 -3.118569 -7.909648 -2.788374 139.999924
16 139.999924 -0.000238 0.000060 -2.279169 -20.737005 -4.611578 139.999924
[Rope3_Seg06]
15 139.999893 -0.000119 -0.000060 -2.126003 -21.903683 -10.835205 139.999893
16 139.999893 -0.000119 -0.000060 1.477107 -16.905153 -4.639264 139.999893
[Rope3_Seg07]
15 139.999771 0.000060 -0.000119 0.929593 -13.280610 -7.446000 139.999771
16 139.999771 0.000060 -0.000119 1.895886 -8.542841 -2.248113 139.999771
[Rope3_Seg08]
15 139.999985 -0.000060 0.000000 1.266633 -7.421988 -4.056306 139.999985
16 139.999985 -0.000060 0.000000 1.646005 -4.999115 -1.149502 139.999985
[Rope3_Seg09]
15 90.185997 -0.000179 -0.000060 89.793228 -1.359877 -0.847183 90.185997
16 90.185997 -0.000179 -0.000060 89.793228 -1.359877 -0.847183 90.185997
[R_rear_hand01]
15 103.366196 -6.073594 -10.757982 -167.735992 21.565800 -48.800823 104.101845
16 103.366196 -6.073594 -10.757982 -169.706436 22.536156 -54.046982 104.101845
[R_rear_hand02]
15 100.509819 12.039542 -7.992327 -27.197794 28.737703 46.115391 101.543350
16 100.509819 12.039542 -7.992327 -24.637733 30.906170 51.254921 101.543350
[R_rear_hand03]
15 101.539970 5.215704 5.435467 81.295586 -49.108280 10.466788 101.819031
16 101.539970 5.215704 5.435467 80.293877 -53.997543 11.741186 101.819031
[Rope4_Seg01]
15 0.000010 0.000017 -0.000067 46.533749 0.563850 -131.249786 0.000070
16 0.000010 0.000015 -0.000061 48.250622 -2.209875 -128.403122 0.000064
[Rope4_Seg02]
15 139.999985 0.000060 0.000119 3.188313 16.171362 12.721408 139.999985
16 139.999985 0.000060 0.000119 1.636893 14.930558 8.759339 139.999985
[Rope4_Seg03]
15 139.999924 0.000000 -0.000238 1.763454 16.618086 13.143116 139.999924
16 139.999924 0.000000 -0.000238 1.348708 14.940892 9.942582 139.999924
[Rope4_Seg04]
15 139.999985 0.000000 0.000119 -0.953583 14.801952 14.123605 139.999985
16 139.999985 0.000000 0.000119 -0.274195 12.411808 11.218127 139.999985
[Rope4_Seg05]
15 139.999802 -0.000060 -0.000119 0.461897 3.781205 1.199601 139.999802
16 139.999802 -0.000060 -0.000119 1.898381 5.076753 -1.666988 139.999802
[Rope4_Seg06]
15 139.999924 0.000000 0.000060 4.886031 -2.537070 -9.157248 139.999924
16 139.999924 0.000000 0.000060 6.259062 1.271584 -13.582870 139.999924
[Rope4_Seg07]
15 139.999802 0.000000 0.000000 5.534513 -6.683157 -15.058411 139.999802
16 139.999802 0.000000 0.000000 4.586984 0.663934 -12.629178 139.999802
[Rope4_Seg08]
15 139.999924 0.000000 0.000119 0.169137 -3.139939 -7.726997 139.999924
16 139.999924 0.000000 0.000119 0.773530 0.683350 -7.710193 139.999924
[Rope4_Seg09]
15 90.185791 0.000060 0.000060 -135.617828 2.228885 0.850567 90.185791
16 90.185791 0.000060 0.000060 -135.617828 2.228885 0.850567 90.185791
[L_rear_hand01]
15 101.696655 -8.392275 -7.654577 -18.919888 -34.466518 118.185951 102.329041
16 101.696655 -8.392275 -7.654577 -16.606979 -35.526840 114.151619 102.329041
[L_rear_hand02]
15 102.726799 -1.568258 5.773216 77.226944 63.386848 164.679077 102.900848
16 102.726799 -1.568258 5.773216 75.446785 66.761177 162.720428 102.900848
[L_rear_hand03]
15 104.552910 9.721220 -10.420293 -173.780411 -23.916803 -115.646591 105.519653
16 104.552910 9.721220 -10.420293 -175.325211 -24.244322 -111.864204 105.519653
